HIERARCHY
ROOT Hips
{
	OFFSET	0.00	0.00	0.00
	CHANNELS 6 Xposition Yposition Zposition Zrotation Xrotation Yrotation
	JOINT LeftUpLeg
	{
		OFFSET	 0.126116	-0.014019	-0.065224
		CHANNELS 3 Zrotation Xrotation Yrotation
		JOINT LeftLeg
		{
			OFFSET	 0.000000	 0.000000	 0.569914
			CHANNELS 3 Zrotation Xrotation Yrotation
			JOINT LeftFoot
			{
				OFFSET	 0.000000	 0.000000	 0.544423
				CHANNELS 3 Zrotation Xrotation Yrotation
				JOINT LeftToeBase
				{
					OFFSET	 0.000000	 0.000000	 0.207117
					CHANNELS 3 Zrotation Xrotation Yrotation
					End Site
					{
						OFFSET	 0.000000	 0.000000	 0.207117
					}
				}
			}
		}
	}
	JOINT RightUpLeg
	{
		OFFSET	-0.124023	-0.008373	-0.065224
		CHANNELS 3 Zrotation Xrotation Yrotation
		JOINT RightLeg
		{
			OFFSET	 0.000000	 0.000000	 0.570047
			CHANNELS 3 Zrotation Xrotation Yrotation
			JOINT RightFoot
			{
				OFFSET	 0.000000	 0.000000	 0.544354
				CHANNELS 3 Zrotation Xrotation Yrotation
				JOINT RightToeBase
				{
					OFFSET	 0.000000	 0.000000	 0.207540
					CHANNELS 3 Zrotation Xrotation Yrotation
					End Site
					{
						OFFSET	 0.000000	 0.000000	 0.207540
					}
				}
			}
		}
	}
	JOINT Spine
	{
		OFFSET	 0.000184	-0.007763	 0.117403
		CHANNELS 3 Zrotation Xrotation Yrotation
		JOINT Spine1
		{
			OFFSET	 0.000000	 0.000000	 0.137269
			CHANNELS 3 Zrotation Xrotation Yrotation
			JOINT Spine2
			{
				OFFSET	 0.000000	 0.000000	 0.156879
				CHANNELS 3 Zrotation Xrotation Yrotation
				JOINT LeftShoulder
				{
					OFFSET	 0.080501	-0.002496	 0.160144
					CHANNELS 3 Zrotation Xrotation Yrotation
					JOINT LeftArm
					{
						OFFSET	 0.000000	 0.000000	 0.164363
						CHANNELS 3 Zrotation Xrotation Yrotation
						JOINT LeftForeArm
						{
							OFFSET	 0.000000	 0.000000	 0.364576
							CHANNELS 3 Zrotation Xrotation Yrotation
							JOINT LeftHand
							{
								OFFSET	 0.000000	 0.000000	 0.360812
								CHANNELS 3 Zrotation Xrotation Yrotation
								JOINT LeftHandIndex1
								{
									OFFSET	 0.000000	 0.000000	 0.086006
									CHANNELS 3 Zrotation Xrotation Yrotation
									JOINT LeftHandIndex2
									{
										OFFSET	 0.000000	 0.000000	 0.047236
										CHANNELS 3 Zrotation Xrotation Yrotation
										JOINT LeftHandIndex3
										{
											OFFSET	-0.004284	-0.000551	 0.038166
											CHANNELS 3 Zrotation Xrotation Yrotation
											End Site
											{
												OFFSET	-0.004284	-0.000551	 0.038166
											}
										}
									}
								}
							}
						}
					}
				}
				JOINT Neck
				{
					OFFSET	 0.000000	 0.000000	 0.176489
					CHANNELS 3 Zrotation Xrotation Yrotation
					JOINT Head
					{
						OFFSET	 0.000000	-0.001747	 0.077940
						CHANNELS 3 Zrotation Xrotation Yrotation
						End Site
						{
							OFFSET	 0.000000	-0.001747	 0.077940
						}
					}
				}
				JOINT RightShoulder
				{
					OFFSET	-0.080363	 0.000306	 0.159706
					CHANNELS 3 Zrotation Xrotation Yrotation
					JOINT RightArm
					{
						OFFSET	 0.000000	 0.000000	 0.164196
						CHANNELS 3 Zrotation Xrotation Yrotation
						JOINT RightForeArm
						{
							OFFSET	 0.000000	 0.000000	 0.365611
							CHANNELS 3 Zrotation Xrotation Yrotation
							JOINT RightHand
							{
								OFFSET	 0.000000	 0.000000	 0.360648
								CHANNELS 3 Zrotation Xrotation Yrotation
								JOINT RightHandIndex1
								{
									OFFSET	 0.000000	 0.000000	 0.069977
									CHANNELS 3 Zrotation Xrotation Yrotation
									JOINT RightHandIndex2
									{
										OFFSET	 0.000000	 0.000000	 0.052305
										CHANNELS 3 Zrotation Xrotation Yrotation
										JOINT RightHandIndex3
										{
											OFFSET	 0.009002	-0.000782	 0.042196
											CHANNELS 3 Zrotation Xrotation Yrotation
											End Site
											{
												OFFSET	 0.009002	-0.000782	 0.042196
											}
										}
									}
								}
							}
						}
					}
				}
			}
		}
	}
}
MOTION
Frames:    11
Frame Time: 0.03333334
-1.376305	-9.703325	 0.577193	-24.226590	 0.681902	 0.552857	 2.072190	-33.572030	 172.334000	-6.263942	-68.562520	-6.857436	 177.217200	 86.713660	 179.858600	-2.324056	 37.508310	-0.210742	-0.328512	-35.194890	-177.405900	 1.825637	-73.294680	 4.340092	-178.032000	 85.352690	 179.618600	 2.403955	 21.975900	-0.133596	 1.576835	 14.129520	 1.750450	-4.279399	 7.586833	-1.740041	-4.849978	 4.457097	-0.132385	-139.338100	 89.555890	-129.079800	 49.588860	 61.170200	-77.626360	-18.937370	 0.734806	-27.390910	 0.787383	-2.217351	-5.362123	-3.812334	 37.924440	-2.927599	-2.450526	 36.184240	 0.754587	-1.378229	 35.397820	-2.634230	 1.542112	 2.556246	-3.144106	-0.685867	 7.622404	 3.074599	 93.938740	 85.938080	 171.509800	-54.139100	 70.431180	 73.394790	-0.632749	-9.242517	 29.495540	-27.241030	-3.208522	 9.543282	 6.437017	 35.671460	-0.771858	 2.830251	 35.756010	-7.813440	-2.350882	 35.473990	 5.254307
-1.372286	-9.701454	 0.593280	-25.413290	 2.766023	 0.341289	 2.453955	-34.567980	 172.593100	-5.033296	-66.200120	-5.217811	 176.213100	 87.637850	-178.733100	-2.342896	 35.375590	-0.157942	 0.369475	-36.020540	-177.547500	 1.409555	-69.996320	 4.327963	-177.082300	 86.028660	 178.935200	 2.406067	 20.454620	-0.164065	 5.740623	 14.097020	 1.727222	-5.343436	 7.189918	-1.670159	-5.930645	 4.026526	-0.184278	-126.739700	 89.435940	-141.679300	 47.130680	 61.141980	-76.028360	-19.119550	 0.623980	-26.574470	 1.360926	-2.241331	-5.356650	-3.812334	 37.924440	-2.927599	-2.450526	 36.184240	 0.754587	-1.378229	 35.397820	-2.634230	 1.775201	 2.267472	-3.065917	-0.807619	 7.261496	 3.837313	 94.220780	 86.011400	 171.061300	-54.022750	 70.894110	 73.062930	-0.555466	-8.982342	 29.008540	-27.620910	-3.212866	 9.534794	 6.437017	 35.671460	-0.771858	 2.830251	 35.756010	-7.813440	-2.350882	 35.473990	 5.254307
-1.367480	-9.699843	 0.609477	-26.721010	 4.840184	-0.107560	 3.005727	-35.420810	 173.155600	-4.311760	-63.871700	-3.979226	 173.273000	 88.642610	-175.424400	-2.357237	 33.483290	-0.112916	 1.218827	-37.221260	-177.253100	 0.271173	-67.627530	 3.757885	-174.881000	 87.184640	 176.682000	 2.406741	 19.760930	-0.177843	 10.408270	 14.061410	 1.893733	-6.337447	 6.813716	-1.522476	-6.969639	 3.562716	-0.244910	-120.749200	 89.345090	-147.704000	 44.650650	 60.910830	-74.701450	-19.698500	 0.682323	-25.812430	 1.477677	-2.261618	-5.353923	-3.812334	 37.924440	-2.927599	-2.450526	 36.184240	 0.754587	-1.378229	 35.397820	-2.634230	 2.025219	 2.032704	-2.923136	-0.908030	 6.857133	 4.672935	 94.411470	 86.060850	 170.765400	-53.958360	 71.551730	 72.456950	-0.269755	-8.571114	 28.413770	-27.819890	-3.218669	 9.524773	 6.437017	 35.671460	-0.771858	 2.830251	 35.756010	-7.813440	-2.350882	 35.473990	 5.254307
-1.363825	-9.699547	 0.621658	-27.906160	 6.220850	-0.528778	 3.760452	-35.623410	 173.740500	-4.183696	-61.914990	-3.209132	 162.709500	 89.450710	-164.605100	-2.365357	 32.268570	-0.084814	 1.826926	-38.148500	-176.767400	-1.265251	-65.960020	 2.672016	-171.570600	 88.190730	 172.988900	 2.407111	 19.261290	-0.187723	 14.855850	 14.368000	 2.222066	-7.116817	 6.700100	-1.345489	-7.864686	 3.252077	-0.297819	-118.575300	 89.302830	-149.892400	 42.732380	 60.807590	-74.298150	-20.038950	 0.597556	-25.113630	 2.062258	-2.286436	-5.346758	-3.812334	 37.924440	-2.927599	-2.450526	 36.184240	 0.754587	-1.378229	 35.397820	-2.634230	 2.229993	 1.864337	-2.836737	-1.025696	 6.599894	 5.141959	 94.525890	 86.099170	 170.606400	-53.624300	 72.226320	 71.636530	-0.257156	-8.214129	 27.618330	-28.341370	-3.227845	 9.504788	 6.437017	 35.671460	-0.771858	 2.830251	 35.756010	-7.813440	-2.350882	 35.473990	 5.254307
-1.362165	-9.700015	 0.631157	-28.403440	 7.297832	-0.674777	 4.302752	-35.839190	 174.021300	-3.851249	-60.309680	-2.444569	 81.436160	 89.839290	-83.004490	-2.369012	 31.678830	-0.071372	 1.791255	-38.301420	-176.601000	-2.245545	-64.289660	 1.677097	-167.466400	 88.796020	 168.485000	 2.407072	 19.322440	-0.186518	 18.819860	 14.572160	 2.295895	-8.010118	 6.767419	-1.253038	-8.764572	 3.147006	-0.340073	-118.119000	 89.315290	-150.464100	 41.376600	 61.019310	-74.698840	-20.435030	 0.444940	-24.312990	 2.924120	-2.315320	-5.335294	-3.812334	 37.924440	-2.927599	-2.450526	 36.184240	 0.754587	-1.378229	 35.397820	-2.634230	 2.243272	 1.921363	-2.713952	-1.149735	 6.411338	 5.080997	 94.669810	 86.150310	 170.415300	-52.743190	 73.052030	 70.168850	-0.320854	-7.805796	 26.566720	-29.049890	-3.239624	 9.476662	 6.437017	 35.671460	-0.771858	 2.830251	 35.756010	-7.813440	-2.350882	 35.473990	 5.254307
-1.361747	-9.699782	 0.638586	-28.230980	 8.155154	-0.684545	 4.467441	-36.183390	 174.134500	-3.371900	-59.066870	-1.849989	 22.987060	 89.592660	-24.266090	-2.368812	 31.712880	-0.072142	 1.299466	-38.555920	-176.575100	-2.249939	-62.955070	 1.256303	-161.002800	 89.194490	 161.847200	 2.406783	 19.705840	-0.178937	 22.338570	 14.654450	 2.293294	-8.968145	 6.864811	-1.359095	-9.666396	 3.150718	-0.374910	-122.077000	 89.421900	-146.661400	 40.792300	 61.195930	-75.653130	-21.088270	 0.455929	-24.038710	 3.288731	-2.333830	-5.328921	-3.812334	 37.924440	-2.927599	-2.450526	 36.184240	 0.754587	-1.378229	 35.397820	-2.634230	 2.103239	 2.029998	-2.763589	-1.290975	 6.314378	 4.914186	 94.579180	 86.059010	 170.428800	-51.074270	 74.129770	 67.741130	-0.230832	-7.422043	 25.581360	-29.835080	-3.251508	 9.446149	 6.437017	 35.671460	-0.771858	 2.830251	 35.756010	-7.813440	-2.350882	 35.473990	 5.254307
-1.363075	-9.701464	 0.644574	-27.814220	 8.756744	-0.680879	 4.414101	-36.268070	 174.123900	-2.836717	-58.198980	-1.393687	 13.979100	 89.342400	-15.009940	-2.370694	 31.397940	-0.065012	 0.879851	-38.414550	-176.655500	-1.459872	-61.980770	 1.628885	-156.879000	 89.347780	 157.947300	 2.405490	 20.946010	-0.154266	 25.560680	 14.682470	 2.378663	-9.877857	 6.940875	-1.535703	-10.537900	 3.172359	-0.406898	-138.544200	 89.608830	-130.317000	 41.246440	 61.128690	-77.140750	-21.497300	 0.574939	-24.643880	 3.342555	-2.325443	-5.330006	-3.812334	 37.924440	-2.927599	-2.450526	 36.184240	 0.754587	-1.378229	 35.397820	-2.634230	 1.915902	 2.005568	-2.972373	-1.453264	 6.277063	 4.644305	 94.292370	 85.846210	 170.626400	-48.744430	 75.377400	 64.541150	 0.085862	-7.110188	 24.870090	-30.594520	-3.260152	 9.416279	 6.437017	 35.671460	-0.771858	 2.830251	 35.756010	-7.813440	-2.350882	 35.473990	 5.254307
-1.365447	-9.704211	 0.648476	-27.325110	 9.144553	-0.664544	 4.256988	-36.292320	 174.095600	-2.404315	-57.573530	-1.113889	 11.136430	 89.161630	-12.009430	-2.374352	 30.758150	-0.050647	 0.765776	-38.220640	-176.857000	-0.565427	-61.387960	 2.327623	-150.841700	 89.467710	 152.311800	 2.402421	 22.807220	-0.116770	 27.920240	 14.544360	 2.452730	-10.602250	 6.958820	-1.635224	-11.233830	 3.175283	-0.433652	-167.592800	 89.711970	-101.369300	 42.709460	 60.836490	-78.823700	-21.539870	 0.784264	-25.863330	 3.100861	-2.295639	-5.337234	-3.812334	 37.924440	-2.927599	-2.450526	 36.184240	 0.754587	-1.378229	 35.397820	-2.634230	 1.750157	 1.948706	-3.075895	-1.577656	 6.192152	 4.251343	 94.104710	 85.692790	 170.744900	-47.037520	 76.196910	 61.959940	 0.372510	-6.855511	 24.566640	-30.947560	-3.263925	 9.403743	 6.437017	 35.671460	-0.771858	 2.830251	 35.756010	-7.813440	-2.350882	 35.473990	 5.254307
-1.368389	-9.707897	 0.651121	-26.892940	 9.376846	-0.763747	 4.119156	-36.111120	 174.209100	-2.192355	-57.056170	-1.024340	 9.438119	 89.009690	-10.265730	-2.375033	 30.633970	-0.047875	 0.857508	-37.986700	-176.881700	 0.137461	-60.989710	 3.000645	-157.764800	 89.332360	 159.637300	 2.399071	 24.260140	-0.087062	 29.616160	 14.289790	 2.694318	-11.165000	 6.904048	-1.670825	-11.801410	 3.122467	-0.461171	 161.888700	 89.710610	-70.926020	 44.585020	 60.369930	-80.689700	-21.484320	 1.080011	-27.362250	 2.651264	-2.261953	-5.345918	-3.812334	 37.924440	-2.927599	-2.450526	 36.184240	 0.754587	-1.378229	 35.397820	-2.634230	 1.632003	 1.890481	-3.245621	-1.680188	 5.999491	 4.035473	 93.909860	 85.550410	 170.911600	-46.249770	 76.722550	 60.298730	 0.670997	-6.648720	 24.602950	-30.966570	-3.264956	 9.401036	 6.437017	 35.671460	-0.771858	 2.830251	 35.756010	-7.813440	-2.350882	 35.473990	 5.254307
-1.371987	-9.712954	 0.652984	-26.364920	 9.461676	-0.783035	 3.975682	-35.757170	 174.263800	-1.983453	-56.608500	-0.948155	 9.055613	 89.005740	-9.848302	-2.374255	 30.773550	-0.050995	 0.828979	-37.415360	-176.956900	 0.578617	-60.668850	 3.371981	-165.313900	 89.034490	 167.432100	 2.398852	 24.346080	-0.085291	 30.560030	 14.046060	 2.820827	-11.666100	 6.853633	-1.680369	-12.332430	 3.078964	-0.486776	 143.880300	 89.671350	-52.992650	 46.623040	 59.762970	-82.640980	-21.094480	 1.331501	-28.543850	 2.403809	-2.238202	-5.350791	-3.812334	 37.924440	-2.927599	-2.450526	 36.184240	 0.754587	-1.378229	 35.397820	-2.634230	 1.536216	 1.817480	-3.444601	-1.817636	 5.903471	 4.027452	 93.795660	 85.482040	 171.042500	-46.242830	 76.951610	 59.470890	 0.678129	-6.530786	 24.863810	-30.998950	-3.265544	 9.399004	 6.437017	 35.671460	-0.771858	 2.830251	 35.756010	-7.813440	-2.350882	 35.473990	 5.254307
-1.375131	-9.717430	 0.653746	-25.665300	 9.518092	-0.662483	 3.756605	-35.600270	 174.179800	-1.616317	-56.313350	-0.787748	 9.944512	 89.134760	-10.646120	-2.374327	 30.761450	-0.050722	 0.528264	-37.088700	-177.105800	 0.901368	-60.384140	 3.438499	-168.795300	 88.822470	 170.981600	 2.399379	 24.143320	-0.089473	 30.345760	 13.787500	 2.684356	-12.105650	 6.856172	-1.694847	-12.756010	 3.080745	-0.503431	 142.013300	 89.676750	-51.225700	 48.295460	 59.392430	-84.013130	-20.495700	 1.418042	-29.210120	 2.571884	-2.230563	-5.350951	-3.812334	 37.924440	-2.927599	-2.450526	 36.184240	 0.754587	-1.378229	 35.397820	-2.634230	 1.432624	 1.800387	-3.485964	-1.928638	 5.923749	 4.020186	 93.860970	 85.534150	 170.990100	-47.293920	 76.833000	 60.086500	 0.306125	-6.493783	 25.143320	-31.168330	-3.265587	 9.395485	 6.437017	 35.671460	-0.771858	 2.830251	 35.756010	-7.813440	-2.350882	 35.473990	 5.254307
